<svg width="56" height="56" viewBox="0 0 56 56" fill="none" xmlns="http://www.w3.org/2000/svg">
<g filter="url(#filter0_i_446_5155)">
<rect width="56" height="56" rx="28" fill="url(#paint0_linear_446_5155)"/>
<path d="M39.2479 25C39.6627 25 39.9992 24.6625 39.9962 24.2477C39.9778 21.652 39.8678 20.1774 39.2118 19.0272C38.6794 18.0939 37.9061 17.3206 36.9727 16.7882C35.8226 16.1322 34.348 16.0222 31.7522 16.0037C31.3374 16.0008 30.9999 16.3373 30.9999 16.7521C30.9999 17.1657 31.3349 17.5009 31.7485 17.5038C32.763 17.511 33.5672 17.532 34.2418 17.5925C35.2368 17.6818 35.8031 17.8479 36.2295 18.0912C36.9296 18.4904 37.5095 19.0704 37.9088 19.7704C38.1521 20.1969 38.3181 20.7632 38.4074 21.7582C38.468 22.4327 38.4889 23.2369 38.4961 24.2514C38.4991 24.665 38.8342 25 39.2479 25Z" fill="white"/>
<path d="M19.0272 16.7882C20.1773 16.1322 21.6519 16.0222 24.2476 16.0037C24.6624 16.0008 24.9999 16.3373 24.9999 16.7521C24.9999 17.1657 24.6649 17.5009 24.2513 17.5038C23.2368 17.511 22.4327 17.532 21.7581 17.5925C20.7632 17.6818 20.1969 17.8479 19.7704 18.0912C19.0704 18.4904 18.4904 19.0704 18.0911 19.7704C17.8479 20.1969 17.6818 20.7632 17.5925 21.7582C17.5319 22.4327 17.511 23.2369 17.5038 24.2514C17.5008 24.665 17.1657 25 16.752 25C16.3372 25 16.0007 24.6625 16.0037 24.2477C16.0221 21.652 16.1322 20.1774 16.7882 19.0272C17.3206 18.0939 18.0938 17.3206 19.0272 16.7882Z" fill="white"/>
<path d="M16.752 31C16.3372 31 16.0007 31.3375 16.0037 31.7523C16.0221 34.348 16.1322 35.8226 16.7882 36.9727C17.3206 37.9061 18.0938 38.6794 19.0272 39.2118C20.1773 39.8678 21.6519 39.9778 24.2476 39.9963C24.6624 39.9992 24.9999 39.6627 24.9999 39.2479C24.9999 38.8342 24.6649 38.4991 24.2513 38.4962C23.2368 38.4889 22.4327 38.468 21.7581 38.4075C20.7632 38.3182 20.1969 38.1521 19.7704 37.9088C19.0704 37.5095 18.4904 36.9296 18.0911 36.2296C17.8479 35.8031 17.6818 35.2368 17.5925 34.2418C17.5319 33.5673 17.511 32.7631 17.5038 31.7486C17.5008 31.335 17.1657 31 16.752 31Z" fill="white"/>
<path d="M38.4961 31.7486C38.4991 31.335 38.8342 31 39.2479 31C39.6627 31 39.9992 31.3375 39.9962 31.7523C39.9778 34.348 39.8678 35.8226 39.2118 36.9727C38.6794 37.9061 37.9061 38.6794 36.9727 39.2118C35.8226 39.8678 34.348 39.9778 31.7522 39.9963C31.3374 39.9992 30.9999 39.6627 30.9999 39.2479C30.9999 38.8342 31.3349 38.4991 31.7485 38.4962C32.763 38.4889 33.5672 38.468 34.2418 38.4075C35.2368 38.3182 35.8031 38.1521 36.2295 37.9088C36.9296 37.5095 37.5095 36.9296 37.9088 36.2296C38.1521 35.8031 38.3181 35.2368 38.4074 34.2418C38.468 33.5673 38.4889 32.7631 38.4961 31.7486Z" fill="white"/>
<path fill-rule="evenodd" clip-rule="evenodd" d="M22.4999 20C21.1192 20 19.9999 21.1193 19.9999 22.5V24.5C19.9999 25.8807 21.1192 27 22.4999 27H24.4999C25.8806 27 26.9999 25.8807 26.9999 24.5V22.5C26.9999 21.1193 25.8806 20 24.4999 20H22.4999ZM24.4999 21.5H22.4999C21.9477 21.5 21.4999 21.9477 21.4999 22.5V24.5C21.4999 25.0523 21.9477 25.5 22.4999 25.5H24.4999C25.0522 25.5 25.4999 25.0523 25.4999 24.5V22.5C25.4999 21.9477 25.0522 21.5 24.4999 21.5Z" fill="white"/>
<path fill-rule="evenodd" clip-rule="evenodd" d="M28.9999 22.5C28.9999 21.1193 30.1192 20 31.4999 20H33.4999C34.8806 20 35.9999 21.1193 35.9999 22.5V24.5C35.9999 25.8807 34.8806 27 33.4999 27H31.4999C30.1192 27 28.9999 25.8807 28.9999 24.5V22.5ZM31.4999 21.5H33.4999C34.0522 21.5 34.4999 21.9477 34.4999 22.5V24.5C34.4999 25.0523 34.0522 25.5 33.4999 25.5H31.4999C30.9477 25.5 30.4999 25.0523 30.4999 24.5V22.5C30.4999 21.9477 30.9477 21.5 31.4999 21.5Z" fill="white"/>
<path fill-rule="evenodd" clip-rule="evenodd" d="M22.4999 29C21.1192 29 19.9999 30.1193 19.9999 31.5V33.5C19.9999 34.8807 21.1192 36 22.4999 36H24.4999C25.8806 36 26.9999 34.8807 26.9999 33.5V31.5C26.9999 30.1193 25.8806 29 24.4999 29H22.4999ZM24.4999 30.5H22.4999C21.9477 30.5 21.4999 30.9477 21.4999 31.5V33.5C21.4999 34.0523 21.9477 34.5 22.4999 34.5H24.4999C25.0522 34.5 25.4999 34.0523 25.4999 33.5V31.5C25.4999 30.9477 25.0522 30.5 24.4999 30.5Z" fill="white"/>
<path d="M28.9999 31.5C28.9999 31.0353 28.9999 30.803 29.0384 30.6098C29.1962 29.8164 29.8164 29.1962 30.6098 29.0384C30.803 29 31.0353 29 31.4999 29V31.5H28.9999Z" fill="white"/>
<path d="M33.4999 29C33.9646 29 34.1969 29 34.3901 29.0384C35.1835 29.1962 35.8037 29.8164 35.9615 30.6098C35.9999 30.803 35.9999 31.0353 35.9999 31.5H33.4999V29Z" fill="white"/>
<path d="M33.4999 33.5H35.9999C35.9999 33.9647 35.9999 34.197 35.9615 34.3902C35.8037 35.1836 35.1835 35.8038 34.3901 35.9616C34.1969 36 33.9646 36 33.4999 36V33.5Z" fill="white"/>
<path d="M28.9999 33.5H31.4999V36C31.0353 36 30.803 36 30.6098 35.9616C29.8164 35.8038 29.1962 35.1836 29.0384 34.3902C28.9999 34.197 28.9999 33.9647 28.9999 33.5Z" fill="white"/>
</g>
<defs>
<filter id="filter0_i_446_5155" x="0" y="0" width="56" height="58" filterUnits="userSpaceOnUse" color-interpolation-filters="sRGB">
<feFlood flood-opacity="0" result="BackgroundImageFix"/>
<feBlend mode="normal" in="SourceGraphic" in2="BackgroundImageFix" result="shape"/>
<feColorMatrix in="SourceAlpha" type="matrix" values="0 0 0 0 0 0 0 0 0 0 0 0 0 0 0 0 0 0 127 0" result="hardAlpha"/>
<feOffset dy="2"/>
<feGaussianBlur stdDeviation="4"/>
<feComposite in2="hardAlpha" operator="arithmetic" k2="-1" k3="1"/>
<feColorMatrix type="matrix" values="0 0 0 0 1 0 0 0 0 1 0 0 0 0 1 0 0 0 0.25 0"/>
<feBlend mode="normal" in2="shape" result="effect1_innerShadow_446_5155"/>
</filter>
<linearGradient id="paint0_linear_446_5155" x1="0" y1="0" x2="56" y2="56" gradientUnits="userSpaceOnUse">
<stop stop-color="#3396FF"/>
<stop offset="1" stop-color="#0D7DF2"/>
</linearGradient>
</defs>
</svg>
