<svg width="114" height="114" viewBox="0 0 114 114" fill="none" xmlns="http://www.w3.org/2000/svg">
<g filter="url(#filter0_d_3021_72414)">
<mask id="path-1-outside-1_3021_72414" maskUnits="userSpaceOnUse" x="15.4" y="6.40002" width="83" height="83" fill="black">
<rect fill="white" x="15.4" y="6.40002" width="83" height="83"/>
<path fill-rule="evenodd" clip-rule="evenodd" d="M48.2 8.40002C43.3399 8.40002 39.4 12.3399 39.4 17.2H74.6C74.6 12.3399 70.6601 8.40002 65.8 8.40002H48.2ZM26.2 30.4C26.2 25.5399 30.1399 21.6 35 21.6H79C83.8601 21.6 87.8 25.5399 87.8 30.4H26.2ZM24 34.8C20.3549 34.8 17.4 37.7549 17.4 41.4V81C17.4 84.6451 20.3549 87.6 24 87.6H90C93.6451 87.6 96.6 84.6451 96.6 81V41.4C96.6 37.7549 93.6451 34.8 90 34.8H24ZM53.772 46.8281V57.972H42.628C40.8452 57.972 39.4 59.4172 39.4 61.2C39.4 62.9828 40.8452 64.4281 42.628 64.4281H53.772V75.572C53.772 77.3548 55.2172 78.8 57 78.8C58.7828 78.8 60.228 77.3548 60.228 75.572V64.4281H71.372C73.1548 64.4281 74.6 62.9828 74.6 61.2C74.6 59.4172 73.1548 57.972 71.372 57.972H60.228V46.8281C60.228 45.0453 58.7828 43.6 57 43.6C55.2172 43.6 53.772 45.0453 53.772 46.8281Z"/>
</mask>
<path fill-rule="evenodd" clip-rule="evenodd" d="M48.2 8.40002C43.3399 8.40002 39.4 12.3399 39.4 17.2H74.6C74.6 12.3399 70.6601 8.40002 65.8 8.40002H48.2ZM26.2 30.4C26.2 25.5399 30.1399 21.6 35 21.6H79C83.8601 21.6 87.8 25.5399 87.8 30.4H26.2ZM24 34.8C20.3549 34.8 17.4 37.7549 17.4 41.4V81C17.4 84.6451 20.3549 87.6 24 87.6H90C93.6451 87.6 96.6 84.6451 96.6 81V41.4C96.6 37.7549 93.6451 34.8 90 34.8H24ZM53.772 46.8281V57.972H42.628C40.8452 57.972 39.4 59.4172 39.4 61.2C39.4 62.9828 40.8452 64.4281 42.628 64.4281H53.772V75.572C53.772 77.3548 55.2172 78.8 57 78.8C58.7828 78.8 60.228 77.3548 60.228 75.572V64.4281H71.372C73.1548 64.4281 74.6 62.9828 74.6 61.2C74.6 59.4172 73.1548 57.972 71.372 57.972H60.228V46.8281C60.228 45.0453 58.7828 43.6 57 43.6C55.2172 43.6 53.772 45.0453 53.772 46.8281Z" fill="url(#paint0_linear_3021_72414)"/>
<path d="M39.4 17.2H38.3C38.3 17.8075 38.7925 18.3 39.4 18.3V17.2ZM74.6 17.2V18.3C75.2075 18.3 75.7 17.8075 75.7 17.2H74.6ZM26.2 30.4H25.1C25.1 31.0075 25.5925 31.5 26.2 31.5V30.4ZM87.8 30.4V31.5C88.4075 31.5 88.9 31.0075 88.9 30.4H87.8ZM53.772 57.972V59.072C54.3795 59.072 54.872 58.5795 54.872 57.972H53.772ZM53.772 64.4281H54.872C54.872 63.8206 54.3795 63.3281 53.772 63.3281V64.4281ZM60.228 64.4281V63.3281C59.6205 63.3281 59.128 63.8206 59.128 64.4281H60.228ZM60.228 57.972H59.128C59.128 58.5795 59.6205 59.072 60.228 59.072V57.972ZM40.5 17.2C40.5 12.9474 43.9474 9.50002 48.2 9.50002V7.30002C42.7324 7.30002 38.3 11.7324 38.3 17.2H40.5ZM74.6 16.1H39.4V18.3H74.6V16.1ZM65.8 9.50002C70.0526 9.50002 73.5 12.9474 73.5 17.2H75.7C75.7 11.7324 71.2676 7.30002 65.8 7.30002V9.50002ZM48.2 9.50002H65.8V7.30002H48.2V9.50002ZM35 20.5C29.5324 20.5 25.1 24.9324 25.1 30.4H27.3C27.3 26.1474 30.7474 22.7 35 22.7V20.5ZM79 20.5H35V22.7H79V20.5ZM88.9 30.4C88.9 24.9324 84.4676 20.5 79 20.5V22.7C83.2526 22.7 86.7 26.1474 86.7 30.4H88.9ZM26.2 31.5H87.8V29.3H26.2V31.5ZM18.5 41.4C18.5 38.3625 20.9625 35.9 24 35.9V33.7C19.7474 33.7 16.3 37.1474 16.3 41.4H18.5ZM18.5 81V41.4H16.3V81H18.5ZM24 86.5C20.9625 86.5 18.5 84.0376 18.5 81H16.3C16.3 85.2526 19.7474 88.7 24 88.7V86.5ZM90 86.5H24V88.7H90V86.5ZM95.5 81C95.5 84.0376 93.0376 86.5 90 86.5V88.7C94.2526 88.7 97.7 85.2526 97.7 81H95.5ZM95.5 41.4V81H97.7V41.4H95.5ZM90 35.9C93.0376 35.9 95.5 38.3625 95.5 41.4H97.7C97.7 37.1474 94.2526 33.7 90 33.7V35.9ZM24 35.9H90V33.7H24V35.9ZM54.872 57.972V46.8281H52.672V57.972H54.872ZM42.628 59.072H53.772V56.872H42.628V59.072ZM40.5 61.2C40.5 60.0248 41.4528 59.072 42.628 59.072V56.872C40.2377 56.872 38.3 58.8097 38.3 61.2H40.5ZM42.628 63.3281C41.4528 63.3281 40.5 62.3753 40.5 61.2H38.3C38.3 63.5903 40.2377 65.5281 42.628 65.5281V63.3281ZM53.772 63.3281H42.628V65.5281H53.772V63.3281ZM54.872 75.572V64.4281H52.672V75.572H54.872ZM57 77.7C55.8247 77.7 54.872 76.7473 54.872 75.572H52.672C52.672 77.9623 54.6097 79.9 57 79.9V77.7ZM59.128 75.572C59.128 76.7473 58.1753 77.7 57 77.7V79.9C59.3903 79.9 61.328 77.9623 61.328 75.572H59.128ZM59.128 64.4281V75.572H61.328V64.4281H59.128ZM71.372 63.3281H60.228V65.5281H71.372V63.3281ZM73.5 61.2C73.5 62.3753 72.5472 63.3281 71.372 63.3281V65.5281C73.7623 65.5281 75.7 63.5903 75.7 61.2H73.5ZM71.372 59.072C72.5472 59.072 73.5 60.0248 73.5 61.2H75.7C75.7 58.8097 73.7623 56.872 71.372 56.872V59.072ZM60.228 59.072H71.372V56.872H60.228V59.072ZM59.128 46.8281V57.972H61.328V46.8281H59.128ZM57 44.7C58.1753 44.7 59.128 45.6528 59.128 46.8281H61.328C61.328 44.4378 59.3903 42.5 57 42.5V44.7ZM54.872 46.8281C54.872 45.6528 55.8247 44.7 57 44.7V42.5C54.6097 42.5 52.672 44.4378 52.672 46.8281H54.872Z" fill="url(#paint1_linear_3021_72414)" fill-opacity="0.5" mask="url(#path-1-outside-1_3021_72414)"/>
</g>
<defs>
<filter id="filter0_d_3021_72414" x="0.35005" y="0.15005" width="113.3" height="113.3" filterUnits="userSpaceOnUse" color-interpolation-filters="sRGB">
<feFlood flood-opacity="0" result="BackgroundImageFix"/>
<feColorMatrix in="SourceAlpha" type="matrix" values="0 0 0 0 0 0 0 0 0 0 0 0 0 0 0 0 0 0 127 0" result="hardAlpha"/>
<feMorphology radius="19.25" operator="erode" in="SourceAlpha" result="effect1_dropShadow_3021_72414"/>
<feOffset dy="8.8"/>
<feGaussianBlur stdDeviation="17.6"/>
<feColorMatrix type="matrix" values="0 0 0 0 0 0 0 0 0 0 0 0 0 0 0 0 0 0 0.12 0"/>
<feBlend mode="normal" in2="BackgroundImageFix" result="effect1_dropShadow_3021_72414"/>
<feBlend mode="normal" in="SourceGraphic" in2="effect1_dropShadow_3021_72414" result="shape"/>
</filter>
<linearGradient id="paint0_linear_3021_72414" x1="76.0307" y1="-12.5312" x2="53.2012" y2="86.7255" gradientUnits="userSpaceOnUse">
<stop stop-color="white"/>
<stop offset="1" stop-color="white" stop-opacity="0.5"/>
</linearGradient>
<linearGradient id="paint1_linear_3021_72414" x1="57" y1="8.40002" x2="57" y2="87.6" gradientUnits="userSpaceOnUse">
<stop stop-opacity="0.05"/>
<stop offset="1" stop-opacity="0.1"/>
</linearGradient>
</defs>
</svg>
