<svg width="36" height="36" viewBox="0 0 36 36" fill="none" xmlns="http://www.w3.org/2000/svg">
<path d="M0 18C0 8.05888 8.05888 0 18 0C27.9411 0 36 8.05888 36 18C36 27.9411 27.9411 36 18 36C8.05888 36 0 27.9411 0 18Z" fill="#794CFF"/>
<path d="M18 25.8926C18.5396 25.8926 18.9048 25.519 18.9048 24.9712V14.6616L18.8384 12.877L21.0298 15.3174L22.9141 17.1768C23.0801 17.3345 23.3042 17.4424 23.5615 17.4424C24.0596 17.4424 24.4248 17.0605 24.4248 16.5542C24.4248 16.3135 24.3335 16.0977 24.1426 15.8984L18.6724 10.4199C18.4897 10.2373 18.249 10.1294 18 10.1294C17.751 10.1294 17.5103 10.2373 17.3276 10.4199L11.8574 15.8984C11.6665 16.0977 11.5752 16.3135 11.5752 16.5542C11.5752 17.0605 11.9487 17.4424 12.4468 17.4424C12.6958 17.4424 12.9282 17.3345 13.0859 17.1768L14.9702 15.3174L17.1616 12.8687L17.0952 14.6616V24.9712C17.0952 25.519 17.4688 25.8926 18 25.8926Z" fill="white"/>
<path d="M18 35C8.61116 35 1 27.3888 1 18H-1C-1 28.4934 7.50659 37 18 37V35ZM35 18C35 27.3888 27.3888 35 18 35V37C28.4934 37 37 28.4934 37 18H35ZM18 1C27.3888 1 35 8.61116 35 18H37C37 7.50659 28.4934 -1 18 -1V1ZM18 -1C7.50659 -1 -1 7.50659 -1 18H1C1 8.61116 8.61116 1 18 1V-1Z" fill="#987DE8"/>
</svg>
