<svg width="12" height="13" viewBox="0 0 12 13" fill="none" xmlns="http://www.w3.org/2000/svg">
<path d="M4.25 4.75H3.655C2.57566 4.75 2.036 4.75 1.63295 4.9799C1.36071 5.13517 1.13517 5.36071 0.979895 5.63295C0.75 6.036 0.75 6.57566 0.75 7.655V8.845C0.75 9.92434 0.75 10.464 0.979895 10.8671C1.13517 11.1393 1.36071 11.3648 1.63295 11.5201C2.036 11.75 2.57566 11.75 3.655 11.75H4.845C5.92434 11.75 6.464 11.75 6.86705 11.5201C7.13929 11.3648 7.36483 11.1393 7.5201 10.8671C7.75 10.464 7.75 9.92434 7.75 8.845V8.25M7.155 8.25H8.345C9.42434 8.25 9.964 8.25 10.3671 8.0201C10.6393 7.86483 10.8648 7.63929 11.0201 7.36705C11.25 6.964 11.25 6.42434 11.25 5.345V4.155C11.25 3.07566 11.25 2.536 11.0201 2.13295C10.8648 1.86071 10.6393 1.63517 10.3671 1.47989C9.964 1.25 9.42434 1.25 8.345 1.25H7.155C6.07566 1.25 5.536 1.25 5.13295 1.47989C4.86071 1.63517 4.63517 1.86071 4.4799 2.13295C4.25 2.536 4.25 3.07566 4.25 4.155V5.345C4.25 6.42434 4.25 6.964 4.4799 7.36705C4.63517 7.63929 4.86071 7.86483 5.13295 8.0201C5.536 8.25 6.07566 8.25 7.155 8.25Z" stroke="#141414" stroke-width="1.5"/>
</svg>
