<svg width="60" height="60" viewBox="0 0 60 60" fill="none" xmlns="http://www.w3.org/2000/svg">
<g clip-path="url(#clip0_446_5187)">
<circle cx="30" cy="30" r="30" fill="black"/>
<path fill-rule="evenodd" clip-rule="evenodd" d="M36.065 30C36.065 33.5504 33.1868 36.4286 29.6364 36.4286C26.086 36.4286 23.2079 33.5504 23.2079 30C23.2079 26.4496 26.086 23.5714 29.6364 23.5714C33.1868 23.5714 36.065 26.4496 36.065 30ZM17.3172 24.1837C17.435 23.9796 17.7296 23.9796 17.8474 24.1837L24.4089 35.5485C24.5267 35.7526 24.3794 36.0077 24.1438 36.0077H11.0208C10.7852 36.0077 10.6379 35.7526 10.7557 35.5485L17.3172 24.1837ZM37.5186 23.954C37.1804 23.954 36.9063 24.2281 36.9063 24.5662V35.4336C36.9063 35.7717 37.1804 36.0459 37.5186 36.0459H48.3859C48.7241 36.0459 48.9982 35.7717 48.9982 35.4336V24.5662C48.9982 24.2281 48.7241 23.954 48.3859 23.954H37.5186Z" fill="white"/>
<circle cx="30" cy="30" r="29.5" stroke="white" stroke-opacity="0.1"/>
</g>
<defs>
<clipPath id="clip0_446_5187">
<rect width="60" height="60" fill="white"/>
</clipPath>
</defs>
</svg>
