<svg width="24" height="24" viewBox="0 0 24 24" fill="none" xmlns="http://www.w3.org/2000/svg">
<path d="M2 13.5C2 12.6716 2.67157 12 3.5 12H5.37868C5.7765 12 6.15804 12.158 6.43934 12.4393L7.56066 13.5607C7.84197 13.842 8.2235 14 8.62132 14H14.75C15.2221 14 15.6667 13.7777 15.95 13.4L16.55 12.6C16.8333 12.2223 17.2779 12 17.75 12H20.5C21.3284 12 22 12.6716 22 13.5V18.5C22 19.3284 21.3284 20 20.5 20H3.5C2.67157 20 2 19.3284 2 18.5V13.5Z" fill="#141414"/>
<path d="M2.5 12H5.88197C6.56717 12 7.19357 12.3871 7.5 13C7.80643 13.6129 8.43283 14 9.11803 14H14.882C15.5672 14 16.1936 13.6129 16.5 13C16.8064 12.3871 17.4328 12 18.118 12H21.5M8.96656 4H15.0334C16.1103 4 16.6487 4 17.1241 4.16396C17.5445 4.30896 17.9274 4.5456 18.2451 4.85675C18.6043 5.2086 18.8451 5.6902 19.3267 6.65337L21.4932 10.9865C21.6822 11.3645 21.7767 11.5535 21.8434 11.7515C21.9026 11.9275 21.9453 12.1085 21.971 12.2923C22 12.4992 22 12.7105 22 13.1331V15.2C22 16.8802 22 17.7202 21.673 18.362C21.3854 18.9265 20.9265 19.3854 20.362 19.673C19.7202 20 18.8802 20 17.2 20H6.8C5.11984 20 4.27976 20 3.63803 19.673C3.07354 19.3854 2.6146 18.9265 2.32698 18.362C2 17.7202 2 16.8802 2 15.2V13.1331C2 12.7105 2 12.4992 2.02897 12.2923C2.05471 12.1085 2.09744 11.9275 2.15662 11.7515C2.22326 11.5535 2.31776 11.3645 2.50675 10.9865L4.67331 6.65337C5.1549 5.69019 5.3957 5.2086 5.75495 4.85675C6.07263 4.5456 6.45551 4.30896 6.87589 4.16396C7.35125 4 7.88969 4 8.96656 4Z" stroke="#141414" stroke-width="1.5" stroke-linecap="round" stroke-linejoin="round"/>
</svg>
